<svg width="224" height="33" viewBox="0 0 224 33" fill="none" xmlns="http://www.w3.org/2000/svg">
<path d="M16.016 3.6H21.2V26H16.016V3.6ZM5.84 26H0.656V3.6H5.84V26ZM16.4 16.816H5.456V12.432H16.4V16.816ZM34.0198 26.256C32.1851 26.256 30.5531 25.872 29.1238 25.104C27.7158 24.336 26.5958 23.2907 25.7638 21.968C24.9531 20.624 24.5478 19.0987 24.5478 17.392C24.5478 15.664 24.9531 14.1387 25.7638 12.816C26.5958 11.472 27.7158 10.4267 29.1238 9.68C30.5531 8.912 32.1851 8.528 34.0198 8.528C35.8331 8.528 37.4544 8.912 38.8838 9.68C40.3131 10.4267 41.4331 11.4613 42.2438 12.784C43.0544 14.1067 43.4598 15.6427 43.4598 17.392C43.4598 19.0987 43.0544 20.624 42.2438 21.968C41.4331 23.2907 40.3131 24.336 38.8838 25.104C37.4544 25.872 35.8331 26.256 34.0198 26.256ZM34.0198 22.16C34.8518 22.16 35.5984 21.968 36.2598 21.584C36.9211 21.2 37.4438 20.656 37.8278 19.952C38.2118 19.2267 38.4038 18.3733 38.4038 17.392C38.4038 16.3893 38.2118 15.536 37.8278 14.832C37.4438 14.128 36.9211 13.584 36.2598 13.2C35.5984 12.816 34.8518 12.624 34.0198 12.624C33.1878 12.624 32.4411 12.816 31.7798 13.2C31.1184 13.584 30.5851 14.128 30.1798 14.832C29.7958 15.536 29.6038 16.3893 29.6038 17.392C29.6038 18.3733 29.7958 19.2267 30.1798 19.952C30.5851 20.656 31.1184 21.2 31.7798 21.584C32.4411 21.968 33.1878 22.16 34.0198 22.16ZM53.5165 26.256C51.4898 26.256 49.9112 25.744 48.7805 24.72C47.6498 23.6747 47.0845 22.128 47.0845 20.08V4.976H52.0765V20.016C52.0765 20.7413 52.2685 21.3067 52.6525 21.712C53.0365 22.096 53.5592 22.288 54.2205 22.288C55.0098 22.288 55.6818 22.0747 56.2365 21.648L57.5805 25.168C57.0685 25.5307 56.4498 25.808 55.7245 26C55.0205 26.1707 54.2845 26.256 53.5165 26.256ZM44.4285 13.008V9.168H56.3645V13.008H44.4285ZM68.0755 26.256C66.1128 26.256 64.3848 25.872 62.8915 25.104C61.4195 24.336 60.2782 23.2907 59.4675 21.968C58.6568 20.624 58.2515 19.0987 58.2515 17.392C58.2515 15.664 58.6462 14.1387 59.4355 12.816C60.2462 11.472 61.3448 10.4267 62.7315 9.68C64.1182 8.912 65.6862 8.528 67.4355 8.528C69.1208 8.528 70.6355 8.89067 71.9795 9.616C73.3448 10.32 74.4222 11.344 75.2115 12.688C76.0008 14.0107 76.3955 15.6 76.3955 17.456C76.3955 17.648 76.3848 17.872 76.3635 18.128C76.3422 18.3627 76.3208 18.5867 76.2995 18.8H62.3155V15.888H73.6755L71.7555 16.752C71.7555 15.856 71.5742 15.0773 71.2115 14.416C70.8488 13.7547 70.3475 13.2427 69.7075 12.88C69.0675 12.496 68.3208 12.304 67.4675 12.304C66.6142 12.304 65.8568 12.496 65.1955 12.88C64.5555 13.2427 64.0542 13.7653 63.6915 14.448C63.3288 15.1093 63.1475 15.8987 63.1475 16.816V17.584C63.1475 18.5227 63.3502 19.3547 63.7555 20.08C64.1822 20.784 64.7688 21.328 65.5155 21.712C66.2835 22.0747 67.1795 22.256 68.2035 22.256C69.1208 22.256 69.9208 22.1173 70.6035 21.84C71.3075 21.5627 71.9475 21.1467 72.5235 20.592L75.1795 23.472C74.3902 24.368 73.3982 25.0613 72.2035 25.552C71.0088 26.0213 69.6328 26.256 68.0755 26.256ZM79.399 26V2.256H84.391V26H79.399ZM89.056 26V3.6H100C102.816 3.6 104.928 4.13333 106.336 5.2C107.765 6.26667 108.48 7.67467 108.48 9.424C108.48 10.5973 108.192 11.6213 107.616 12.496C107.04 13.3493 106.251 14.0107 105.248 14.48C104.245 14.9493 103.093 15.184 101.792 15.184L102.4 13.872C103.808 13.872 105.056 14.1067 106.144 14.576C107.232 15.024 108.075 15.696 108.672 16.592C109.291 17.488 109.6 18.5867 109.6 19.888C109.6 21.808 108.843 23.312 107.328 24.4C105.813 25.4667 103.584 26 100.64 26H89.056ZM94.208 22.096H100.256C101.6 22.096 102.613 21.8827 103.296 21.456C104 21.008 104.352 20.304 104.352 19.344C104.352 18.4053 104 17.712 103.296 17.264C102.613 16.7947 101.6 16.56 100.256 16.56H93.824V12.784H99.36C100.619 12.784 101.579 12.5707 102.24 12.144C102.923 11.696 103.264 11.024 103.264 10.128C103.264 9.25333 102.923 8.60267 102.24 8.176C101.579 7.728 100.619 7.504 99.36 7.504H94.208V22.096ZM121.045 26.256C119.21 26.256 117.578 25.872 116.149 25.104C114.741 24.336 113.621 23.2907 112.789 21.968C111.978 20.624 111.573 19.0987 111.573 17.392C111.573 15.664 111.978 14.1387 112.789 12.816C113.621 11.472 114.741 10.4267 116.149 9.68C117.578 8.912 119.21 8.528 121.045 8.528C122.858 8.528 124.479 8.912 125.909 9.68C127.338 10.4267 128.458 11.4613 129.269 12.784C130.079 14.1067 130.485 15.6427 130.485 17.392C130.485 19.0987 130.079 20.624 129.269 21.968C128.458 23.2907 127.338 24.336 125.909 25.104C124.479 25.872 122.858 26.256 121.045 26.256ZM121.045 22.16C121.877 22.16 122.623 21.968 123.285 21.584C123.946 21.2 124.469 20.656 124.853 19.952C125.237 19.2267 125.429 18.3733 125.429 17.392C125.429 16.3893 125.237 15.536 124.853 14.832C124.469 14.128 123.946 13.584 123.285 13.2C122.623 12.816 121.877 12.624 121.045 12.624C120.213 12.624 119.466 12.816 118.805 13.2C118.143 13.584 117.61 14.128 117.205 14.832C116.821 15.536 116.629 16.3893 116.629 17.392C116.629 18.3733 116.821 19.2267 117.205 19.952C117.61 20.656 118.143 21.2 118.805 21.584C119.466 21.968 120.213 22.16 121.045 22.16ZM141.693 26.256C139.859 26.256 138.227 25.872 136.797 25.104C135.389 24.336 134.269 23.2907 133.437 21.968C132.627 20.624 132.221 19.0987 132.221 17.392C132.221 15.664 132.627 14.1387 133.437 12.816C134.269 11.472 135.389 10.4267 136.797 9.68C138.227 8.912 139.859 8.528 141.693 8.528C143.507 8.528 145.128 8.912 146.557 9.68C147.987 10.4267 149.107 11.4613 149.917 12.784C150.728 14.1067 151.133 15.6427 151.133 17.392C151.133 19.0987 150.728 20.624 149.917 21.968C149.107 23.2907 147.987 24.336 146.557 25.104C145.128 25.872 143.507 26.256 141.693 26.256ZM141.693 22.16C142.525 22.16 143.272 21.968 143.933 21.584C144.595 21.2 145.117 20.656 145.501 19.952C145.885 19.2267 146.077 18.3733 146.077 17.392C146.077 16.3893 145.885 15.536 145.501 14.832C145.117 14.128 144.595 13.584 143.933 13.2C143.272 12.816 142.525 12.624 141.693 12.624C140.861 12.624 140.115 12.816 139.453 13.2C138.792 13.584 138.259 14.128 137.853 14.832C137.469 15.536 137.277 16.3893 137.277 17.392C137.277 18.3733 137.469 19.2267 137.853 19.952C138.259 20.656 138.792 21.2 139.453 21.584C140.115 21.968 140.861 22.16 141.693 22.16ZM158.278 22.48L158.406 16.4L166.438 8.784H172.39L164.678 16.624L162.086 18.736L158.278 22.48ZM154.15 26V2.256H159.142V26H154.15ZM166.982 26L161.158 18.768L164.294 14.896L173.03 26H166.982ZM174.955 26V8.784H179.947V26H174.955ZM177.451 6.384C176.534 6.384 175.787 6.11733 175.211 5.584C174.635 5.05067 174.347 4.38933 174.347 3.6C174.347 2.81067 174.635 2.14933 175.211 1.616C175.787 1.08267 176.534 0.815998 177.451 0.815998C178.369 0.815998 179.115 1.072 179.691 1.584C180.267 2.07467 180.555 2.71467 180.555 3.504C180.555 4.336 180.267 5.02933 179.691 5.584C179.137 6.11733 178.39 6.384 177.451 6.384ZM194.724 8.528C196.09 8.528 197.306 8.80533 198.372 9.36C199.46 9.89333 200.314 10.7253 200.932 11.856C201.551 12.9653 201.86 14.3947 201.86 16.144V26H196.868V16.912C196.868 15.5253 196.559 14.5013 195.94 13.84C195.343 13.1787 194.49 12.848 193.38 12.848C192.591 12.848 191.876 13.0187 191.236 13.36C190.618 13.68 190.127 14.1813 189.764 14.864C189.423 15.5467 189.252 16.4213 189.252 17.488V26H184.26V8.784H189.028V13.552L188.132 12.112C188.751 10.96 189.636 10.0747 190.788 9.456C191.94 8.83733 193.252 8.528 194.724 8.528ZM214.286 32.464C212.665 32.464 211.097 32.2613 209.582 31.856C208.089 31.472 206.841 30.8853 205.838 30.096L207.822 26.512C208.548 27.1093 209.465 27.5787 210.574 27.92C211.705 28.2827 212.814 28.464 213.902 28.464C215.673 28.464 216.953 28.0693 217.742 27.28C218.553 26.4907 218.958 25.3173 218.958 23.76V21.168L219.278 16.848L219.214 12.496V8.784H223.95V23.12C223.95 26.32 223.118 28.6773 221.454 30.192C219.79 31.7067 217.401 32.464 214.286 32.464ZM213.518 25.168C211.918 25.168 210.468 24.8267 209.166 24.144C207.886 23.44 206.852 22.4693 206.062 21.232C205.294 19.9733 204.91 18.512 204.91 16.848C204.91 15.1627 205.294 13.7013 206.062 12.464C206.852 11.2053 207.886 10.2347 209.166 9.552C210.468 8.86933 211.918 8.528 213.518 8.528C214.969 8.528 216.249 8.82667 217.358 9.424C218.468 10 219.332 10.9067 219.95 12.144C220.569 13.36 220.878 14.928 220.878 16.848C220.878 18.7467 220.569 20.3147 219.95 21.552C219.332 22.768 218.468 23.6747 217.358 24.272C216.249 24.8693 214.969 25.168 213.518 25.168ZM214.51 21.072C215.385 21.072 216.164 20.9013 216.846 20.56C217.529 20.1973 218.062 19.696 218.446 19.056C218.83 18.416 219.022 17.68 219.022 16.848C219.022 15.9947 218.83 15.2587 218.446 14.64C218.062 14 217.529 13.5093 216.846 13.168C216.164 12.8053 215.385 12.624 214.51 12.624C213.636 12.624 212.857 12.8053 212.174 13.168C211.492 13.5093 210.948 14 210.542 14.64C210.158 15.2587 209.966 15.9947 209.966 16.848C209.966 17.68 210.158 18.416 210.542 19.056C210.948 19.696 211.492 20.1973 212.174 20.56C212.857 20.9013 213.636 21.072 214.51 21.072Z" fill="white"/>
</svg>
